<svg xmlns="http://www.w3.org/2000/svg" width="200" height="200" viewBox="0 0 40 42">
    <g fill="none" fill-rule="nonzero">
        <path fill="#FFD424" stroke="#432701" stroke-width="1.3" d="M19.487 40.237c-9.63 0-17.436-7.732-17.436-17.27 0-9.54 7.807-17.271 17.436-17.271.495 3.212 2.1 4.13 4.464 3.744 1.474 1.449 4.37 2.536 7.327.803 3.47 3.157 5.645 7.689 5.645 12.723 0 9.539-7.806 17.271-17.436 17.271zM20 28.723c2.549 0 4.615-2.109 4.615-4.71s-2.066-4.71-4.615-4.71c-2.549 0-4.615 2.109-4.615 4.71s2.066 4.71 4.615 4.71z"/>
        <path fill="#D59F0F" d="M14.856 24.744c-.35-3.7 1-5.926 4.048-6.678 3.284-.409 5.338 1.226 6.16 4.905-.515-1.923-1.622-3.22-3.321-3.892-.824-.276-1.893-.425-2.84-.168-2.797.887-4.147 2.831-4.047 5.833z"/>
        <path stroke="#432701" stroke-linecap="round" stroke-width="1.3" d="M6.9 34.273c3.129-.618 5.619-.338 7.47.84 2.777 1.766 3.604.5 4.438-.571.835-1.072 1.81-1.072 4.188 1.172 2.378 2.243 4.649-7.473 7.022-7.493 3.016-.747 4.214-.66 4.214-4.077.409-2.863 1.222-4.106 2.442-3.729l.25 2.1"/>
        <path fill="#432701" d="M22.836 4.291l.102-2.028a.878.878 0 0 1 .925-.832c.487.026.86.441.836.928l-.103 2.028a.878.878 0 0 1-.925.832.884.884 0 0 1-.835-.928z"/>
        <path fill="#FFD424" d="M26.88 5.569l1.234-1.52a.865.865 0 0 1 1.238-.108.923.923 0 0 1 .112 1.279L28.23 6.74a.865.865 0 0 1-1.238.107.923.923 0 0 1-.112-1.278z"/>
        <path fill="#EFA509" d="M7.391 34.637c2.316-.483 4.288-.361 5.918.366 2.445 1.092 3.777 2.85 5.927-.19.333-.667.967-.667 1.902 0 1.578.9 1.843 2.248 3.382 1.536 2.176-2.106 3.426-6.838 5.266-7.6 2.005-.781 3.75-.11 4.772-2.752.227-1.546.356-5.014 1.616-5.086.624 2.274.413 10.604-6.863 15.704-5.811 4.154-14.353 4.177-20.483-.563a31.875 31.875 0 0 1-1.437-1.415z"/>
        <path fill="#BA8314" d="M7.167 34.499c3.74 3.745 8.199 5.464 13.378 5.158 3.486-.194 5.518-1.194 8.261-2.56 5.665-4.166 8.136-9.588 7.415-16.267-.253 7.449-3.302 12.871-9.146 16.267-6.928 2.672-13.564 1.805-19.908-2.598z"/>
    </g>
</svg>
